<?xml version="1.0" encoding="UTF-8"?>
<svg viewBox="0 0 40 40" xmlns="http://www.w3.org/2000/svg">
<g class="color1" fill="#010101">
<path d="m20.61 6h4.57a7.24 7.24 0 0 0 2 4.87 8.24 8.24 0 0 0 4.98 2.13v4.7a12.24 12.24 0 0 1-4.9-1.13 15.36 15.36 0 0 1-1.89-1.08v10.21a8.89 8.89 0 0 1-1.58 4.6 8.7 8.7 0 0 1-6.91 3.7 8.52 8.52 0 0 1-4.76-1.2 8.8 8.8 0 0 1-4.26-6.66v-1.74a8.79 8.79 0 0 1 10.14-7.81c0 1.73-0.05 3.46-0.05 5.18a4 4 0 0 0-5.11 2.48 4.41 4.41 0 0 0-0.16 1.88 4 4 0 0 0 7.32 1.47 2.75 2.75 0 0 0 0.48-1.24c0.12-2.09 0.07-4.17 0.08-6.25v-14.09z"/>
</g>
</svg>
