<?xml version="1.0" encoding="UTF-8"?>
<svg viewBox="0 0 40 40" xmlns="http://www.w3.org/2000/svg">
<g class="color1" fill="#25d366">
<path d="m30.6 9.4c-5.7-5.7-14.9-5.7-20.5 0-4.7 4.6-5.6 11.8-2.3 17.5l-2.1 7.5 7.7-2c2.1 1.2 4.5 1.8 6.9 1.8 8 0 14.5-6.5 14.5-14.5 0.1-3.9-1.5-7.6-4.2-10.3zm-10.3 22.3c-2.2 0-4.3-0.6-6.1-1.7l-0.4-0.3-4.6 1.3 1.2-4.5-0.3-0.5c-3.6-5.5-1.9-13 3.8-16.6s13.1-1.9 16.6 3.7c3.6 5.6 1.9 13.1-3.7 16.6-2 1.3-4.2 2-6.5 2z"/>
<path d="m27.6 23.1c-0.1-0.1-0.3-0.2-0.7-0.4s-2.1-1.1-2.5-1.2-0.6-0.2-0.8 0.2-0.9 1.2-1.1 1.4-0.4 0.3-0.8 0.1c-1.1-0.4-2.1-1-2.9-1.8-0.8-0.7-1.5-1.6-2-2.5-0.2-0.4 0-0.6 0.2-0.7s0.4-0.4 0.5-0.6 0.3-0.4 0.4-0.6 0.1-0.4 0-0.6-0.8-2-1.1-2.7-0.6-0.6-0.8-0.6h-0.7c-0.4 0-0.7 0.2-1 0.5-0.8 0.8-1.3 1.9-1.3 3 0.1 1.4 0.6 2.7 1.5 3.8 1.6 2.3 3.7 4.2 6.2 5.5 0.7 0.3 1.4 0.5 2.1 0.8 0.7 0.2 1.5 0.3 2.3 0.1 1-0.2 1.9-0.8 2.5-1.7 0.1-0.8 0.1-1.4 0-2z"/>
</g>
</svg>