<?xml version="1.0" encoding="UTF-8"?><svg id="uuid-e478dc82-4974-4d70-82da-7eaaa6a46f7c" xmlns="http://www.w3.org/2000/svg" viewBox="0 0 170 50"><path d="m12.64,46.28c-3.74-2.08-6.71-5-8.91-8.74-2.2-3.74-3.3-7.94-3.3-12.61s1.1-8.86,3.3-12.58c2.2-3.72,5.17-6.62,8.91-8.7,3.74-2.08,7.85-3.13,12.34-3.13s8.6,1.04,12.34,3.13c3.74,2.09,6.69,4.99,8.84,8.7,2.15,3.72,3.23,7.91,3.23,12.58s-1.09,8.87-3.26,12.61c-2.18,3.74-5.12,6.65-8.84,8.74-3.72,2.09-7.82,3.13-12.31,3.13s-8.6-1.04-12.34-3.13Zm21.49-11.29c2.29-2.54,3.43-5.89,3.43-10.06s-1.15-7.58-3.43-10.1c-2.29-2.52-5.34-3.77-9.15-3.77s-6.93,1.25-9.21,3.74c-2.29,2.49-3.43,5.87-3.43,10.13s1.14,7.58,3.43,10.1c2.29,2.52,5.36,3.77,9.21,3.77s6.86-1.27,9.15-3.81Z" style="fill:#fff;"/><path d="m103.32,48.94h-11.63l-19.45-29.44v29.44h-11.63V1.2h11.63l19.45,29.58V1.2h11.63v47.74Z" style="fill:#fff;"/><path d="m128.14,10.52v9.66h15.57v8.98h-15.57v10.47h17.61v9.32h-29.24V1.2h29.24v9.32h-17.61Z" style="fill:#fff;"/><circle cx="163.06" cy="42.44" r="6.5" style="fill:#fff;"/></svg>